<?xml version="1.0" encoding="UTF-8" standalone="no"?>
<!DOCTYPE svg PUBLIC "-//W3C//DTD SVG 1.1//EN"
 "http://www.w3.org/Graphics/SVG/1.1/DTD/svg11.dtd">
<!-- Generated by graphviz version 2.40.1 (20161225.0304)
 -->
<!-- Title: %3 Pages: 1 -->
<svg width="1122pt" height="476pt"
 viewBox="0.00 0.00 1122.09 476.00" xmlns="http://www.w3.org/2000/svg" xmlns:xlink="http://www.w3.org/1999/xlink">
<g id="graph0" class="graph" transform="scale(1 1) rotate(0) translate(4 472)">
<title>%3</title>
<polygon fill="#ffffff" stroke="transparent" points="-4,4 -4,-472 1118.0894,-472 1118.0894,4 -4,4"/>
<!-- [root] aws_instance.ubuntu -->
<g id="node1" class="node">
<title>[root] aws_instance.ubuntu</title>
<polygon fill="none" stroke="#000000" points="663.5,-252 533.5,-252 533.5,-216 663.5,-216 663.5,-252"/>
<text text-anchor="middle" x="598.5" y="-230.3" font-family="Times,serif" font-size="14.00" fill="#000000">aws_instance.ubuntu</text>
</g>
<!-- [root] aws_key_pair.my_pair_key -->
<g id="node2" class="node">
<title>[root] aws_key_pair.my_pair_key</title>
<polygon fill="none" stroke="#000000" points="167,-180 0,-180 0,-144 167,-144 167,-180"/>
<text text-anchor="middle" x="83.5" y="-158.3" font-family="Times,serif" font-size="14.00" fill="#000000">aws_key_pair.my_pair_key</text>
</g>
<!-- [root] aws_instance.ubuntu&#45;&gt;[root] aws_key_pair.my_pair_key -->
<g id="edge1" class="edge">
<title>[root] aws_instance.ubuntu&#45;&gt;[root] aws_key_pair.my_pair_key</title>
<path fill="none" stroke="#000000" d="M533.2507,-226.9605C452.1992,-217.923 309.4807,-201.051 177.03,-180.0294"/>
<polygon fill="#000000" stroke="#000000" points="177.5338,-176.5655 167.1067,-178.4434 176.429,-183.4778 177.5338,-176.5655"/>
</g>
<!-- [root] aws_security_group.allow_port_22 -->
<g id="node3" class="node">
<title>[root] aws_security_group.allow_port_22</title>
<polygon fill="none" stroke="#000000" points="393.5,-180 185.5,-180 185.5,-144 393.5,-144 393.5,-180"/>
<text text-anchor="middle" x="289.5" y="-158.3" font-family="Times,serif" font-size="14.00" fill="#000000">aws_security_group.allow_port_22</text>
</g>
<!-- [root] aws_instance.ubuntu&#45;&gt;[root] aws_security_group.allow_port_22 -->
<g id="edge2" class="edge">
<title>[root] aws_instance.ubuntu&#45;&gt;[root] aws_security_group.allow_port_22</title>
<path fill="none" stroke="#000000" d="M533.3466,-218.8186C487.7801,-208.2012 426.416,-193.9028 376.6463,-182.3059"/>
<polygon fill="#000000" stroke="#000000" points="377.3885,-178.8852 366.8551,-180.0245 375.7999,-185.7026 377.3885,-178.8852"/>
</g>
<!-- [root] aws_security_group.allow_port_80 -->
<g id="node4" class="node">
<title>[root] aws_security_group.allow_port_80</title>
<polygon fill="none" stroke="#000000" points="619.5,-180 411.5,-180 411.5,-144 619.5,-144 619.5,-180"/>
<text text-anchor="middle" x="515.5" y="-158.3" font-family="Times,serif" font-size="14.00" fill="#000000">aws_security_group.allow_port_80</text>
</g>
<!-- [root] aws_instance.ubuntu&#45;&gt;[root] aws_security_group.allow_port_80 -->
<g id="edge3" class="edge">
<title>[root] aws_instance.ubuntu&#45;&gt;[root] aws_security_group.allow_port_80</title>
<path fill="none" stroke="#000000" d="M577.5556,-215.8314C567.4309,-207.0485 555.1223,-196.3712 544.1452,-186.8489"/>
<polygon fill="#000000" stroke="#000000" points="546.2851,-184.0718 536.4377,-180.1628 541.6981,-189.3595 546.2851,-184.0718"/>
</g>
<!-- [root] var.image_id -->
<g id="node8" class="node">
<title>[root] var.image_id</title>
<polygon fill="none" stroke="#000000" points="721,-180 638,-180 638,-144 727,-144 727,-174 721,-180"/>
<polyline fill="none" stroke="#000000" points="721,-180 721,-174 "/>
<polyline fill="none" stroke="#000000" points="727,-174 721,-174 "/>
<text text-anchor="middle" x="682.5" y="-158.3" font-family="Times,serif" font-size="14.00" fill="#000000">var.image_id</text>
</g>
<!-- [root] aws_instance.ubuntu&#45;&gt;[root] var.image_id -->
<g id="edge5" class="edge">
<title>[root] aws_instance.ubuntu&#45;&gt;[root] var.image_id</title>
<path fill="none" stroke="#000000" d="M619.6967,-215.8314C629.9434,-207.0485 642.4003,-196.3712 653.5097,-186.8489"/>
<polygon fill="#000000" stroke="#000000" points="655.9952,-189.3282 661.31,-180.1628 651.4397,-184.0134 655.9952,-189.3282"/>
</g>
<!-- [root] var.instance_type -->
<g id="node9" class="node">
<title>[root] var.instance_type</title>
<polygon fill="none" stroke="#000000" points="850.5,-180 744.5,-180 744.5,-144 856.5,-144 856.5,-174 850.5,-180"/>
<polyline fill="none" stroke="#000000" points="850.5,-180 850.5,-174 "/>
<polyline fill="none" stroke="#000000" points="856.5,-174 850.5,-174 "/>
<text text-anchor="middle" x="800.5" y="-158.3" font-family="Times,serif" font-size="14.00" fill="#000000">var.instance_type</text>
</g>
<!-- [root] aws_instance.ubuntu&#45;&gt;[root] var.instance_type -->
<g id="edge6" class="edge">
<title>[root] aws_instance.ubuntu&#45;&gt;[root] var.instance_type</title>
<path fill="none" stroke="#000000" d="M649.2124,-215.9243C676.827,-206.0815 711.175,-193.8386 740.1601,-183.5073"/>
<polygon fill="#000000" stroke="#000000" points="741.5223,-186.7375 749.7667,-180.0831 739.1721,-180.1438 741.5223,-186.7375"/>
</g>
<!-- [root] provisioner.remote&#45;exec -->
<g id="node12" class="node">
<title>[root] provisioner.remote&#45;exec</title>
<ellipse fill="none" stroke="#000000" cx="994.5" cy="-162" rx="119.6788" ry="18"/>
<text text-anchor="middle" x="994.5" y="-158.3" font-family="Times,serif" font-size="14.00" fill="#000000">[root] provisioner.remote&#45;exec</text>
</g>
<!-- [root] aws_instance.ubuntu&#45;&gt;[root] provisioner.remote&#45;exec -->
<g id="edge4" class="edge">
<title>[root] aws_instance.ubuntu&#45;&gt;[root] provisioner.remote&#45;exec</title>
<path fill="none" stroke="#000000" d="M663.8913,-222.1107C730.6108,-209.9799 834.5091,-191.0892 908.0007,-177.7271"/>
<polygon fill="#000000" stroke="#000000" points="908.9493,-181.1121 918.1619,-175.8797 907.697,-174.225 908.9493,-181.1121"/>
</g>
<!-- [root] provider.aws -->
<g id="node6" class="node">
<title>[root] provider.aws</title>
<polygon fill="none" stroke="#000000" points="289.5,-108 209.5666,-90 289.5,-72 369.4334,-90 289.5,-108"/>
<text text-anchor="middle" x="289.5" y="-86.3" font-family="Times,serif" font-size="14.00" fill="#000000">provider.aws</text>
</g>
<!-- [root] aws_key_pair.my_pair_key&#45;&gt;[root] provider.aws -->
<g id="edge7" class="edge">
<title>[root] aws_key_pair.my_pair_key&#45;&gt;[root] provider.aws</title>
<path fill="none" stroke="#000000" d="M135.2166,-143.9243C170.2114,-131.6931 215.8099,-115.7558 248.3406,-104.3858"/>
<polygon fill="#000000" stroke="#000000" points="249.7054,-107.6165 257.9905,-101.013 247.3957,-101.0085 249.7054,-107.6165"/>
</g>
<!-- [root] aws_security_group.allow_port_22&#45;&gt;[root] provider.aws -->
<g id="edge8" class="edge">
<title>[root] aws_security_group.allow_port_22&#45;&gt;[root] provider.aws</title>
<path fill="none" stroke="#000000" d="M289.5,-143.8314C289.5,-136.131 289.5,-126.9743 289.5,-118.4166"/>
<polygon fill="#000000" stroke="#000000" points="293.0001,-118.4132 289.5,-108.4133 286.0001,-118.4133 293.0001,-118.4132"/>
</g>
<!-- [root] aws_security_group.allow_port_80&#45;&gt;[root] provider.aws -->
<g id="edge9" class="edge">
<title>[root] aws_security_group.allow_port_80&#45;&gt;[root] provider.aws</title>
<path fill="none" stroke="#000000" d="M458.7624,-143.9243C419.561,-131.4354 368.231,-115.0824 332.4186,-103.6732"/>
<polygon fill="#000000" stroke="#000000" points="333.3428,-100.2944 322.7522,-100.5936 331.2179,-106.9641 333.3428,-100.2944"/>
</g>
<!-- [root] output.instance_ip_addr -->
<g id="node5" class="node">
<title>[root] output.instance_ip_addr</title>
<polygon fill="none" stroke="#000000" points="387,-324 246,-324 246,-288 393,-288 393,-318 387,-324"/>
<polyline fill="none" stroke="#000000" points="387,-324 387,-318 "/>
<polyline fill="none" stroke="#000000" points="393,-318 387,-318 "/>
<text text-anchor="middle" x="319.5" y="-302.3" font-family="Times,serif" font-size="14.00" fill="#000000">output.instance_ip_addr</text>
</g>
<!-- [root] output.instance_ip_addr&#45;&gt;[root] aws_instance.ubuntu -->
<g id="edge12" class="edge">
<title>[root] output.instance_ip_addr&#45;&gt;[root] aws_instance.ubuntu</title>
<path fill="none" stroke="#000000" d="M389.5434,-287.9243C430.3395,-277.3963 481.7757,-264.1224 523.4068,-253.3789"/>
<polygon fill="#000000" stroke="#000000" points="524.4115,-256.7344 533.2197,-250.8465 522.6623,-249.9564 524.4115,-256.7344"/>
</g>
<!-- [root] var.profile -->
<g id="node10" class="node">
<title>[root] var.profile</title>
<polygon fill="none" stroke="#000000" points="275.5,-36 207.5,-36 207.5,0 281.5,0 281.5,-30 275.5,-36"/>
<polyline fill="none" stroke="#000000" points="275.5,-36 275.5,-30 "/>
<polyline fill="none" stroke="#000000" points="281.5,-30 275.5,-30 "/>
<text text-anchor="middle" x="244.5" y="-14.3" font-family="Times,serif" font-size="14.00" fill="#000000">var.profile</text>
</g>
<!-- [root] provider.aws&#45;&gt;[root] var.profile -->
<g id="edge14" class="edge">
<title>[root] provider.aws&#45;&gt;[root] var.profile</title>
<path fill="none" stroke="#000000" d="M279.513,-74.0209C274.1604,-65.4567 267.4225,-54.6759 261.2904,-44.8646"/>
<polygon fill="#000000" stroke="#000000" points="264.1543,-42.8431 255.8863,-36.2181 258.2183,-46.5531 264.1543,-42.8431"/>
</g>
<!-- [root] var.region -->
<g id="node11" class="node">
<title>[root] var.region</title>
<polygon fill="none" stroke="#000000" points="365.5,-36 299.5,-36 299.5,0 371.5,0 371.5,-30 365.5,-36"/>
<polyline fill="none" stroke="#000000" points="365.5,-36 365.5,-30 "/>
<polyline fill="none" stroke="#000000" points="371.5,-30 365.5,-30 "/>
<text text-anchor="middle" x="335.5" y="-14.3" font-family="Times,serif" font-size="14.00" fill="#000000">var.region</text>
</g>
<!-- [root] provider.aws&#45;&gt;[root] var.region -->
<g id="edge15" class="edge">
<title>[root] provider.aws&#45;&gt;[root] var.region</title>
<path fill="none" stroke="#000000" d="M299.7089,-74.0209C305.1805,-65.4567 312.0682,-54.6759 318.3365,-44.8646"/>
<polygon fill="#000000" stroke="#000000" points="321.4262,-46.5294 323.8607,-36.2181 315.5273,-42.7607 321.4262,-46.5294"/>
</g>
<!-- [root] var.amis -->
<g id="node7" class="node">
<title>[root] var.amis</title>
<polygon fill="none" stroke="#000000" points="469.5,-324 411.5,-324 411.5,-288 475.5,-288 475.5,-318 469.5,-324"/>
<polyline fill="none" stroke="#000000" points="469.5,-324 469.5,-318 "/>
<polyline fill="none" stroke="#000000" points="475.5,-318 469.5,-318 "/>
<text text-anchor="middle" x="443.5" y="-302.3" font-family="Times,serif" font-size="14.00" fill="#000000">var.amis</text>
</g>
<!-- [root] meta.count&#45;boundary (EachMode fixup) -->
<g id="node13" class="node">
<title>[root] meta.count&#45;boundary (EachMode fixup)</title>
<ellipse fill="none" stroke="#000000" cx="382.5" cy="-378" rx="176.5689" ry="18"/>
<text text-anchor="middle" x="382.5" y="-374.3" font-family="Times,serif" font-size="14.00" fill="#000000">[root] meta.count&#45;boundary (EachMode fixup)</text>
</g>
<!-- [root] meta.count&#45;boundary (EachMode fixup)&#45;&gt;[root] output.instance_ip_addr -->
<g id="edge10" class="edge">
<title>[root] meta.count&#45;boundary (EachMode fixup)&#45;&gt;[root] output.instance_ip_addr</title>
<path fill="none" stroke="#000000" d="M366.6024,-359.8314C359.2722,-351.454 350.434,-341.3531 342.4031,-332.1749"/>
<polygon fill="#000000" stroke="#000000" points="344.8307,-329.6343 335.6116,-324.4133 339.5627,-334.2438 344.8307,-329.6343"/>
</g>
<!-- [root] meta.count&#45;boundary (EachMode fixup)&#45;&gt;[root] var.amis -->
<g id="edge11" class="edge">
<title>[root] meta.count&#45;boundary (EachMode fixup)&#45;&gt;[root] var.amis</title>
<path fill="none" stroke="#000000" d="M397.8929,-359.8314C404.9904,-351.454 413.548,-341.3531 421.324,-332.1749"/>
<polygon fill="#000000" stroke="#000000" points="424.1061,-334.3056 427.8999,-324.4133 418.7652,-329.7807 424.1061,-334.3056"/>
</g>
<!-- [root] provider.aws (close) -->
<g id="node14" class="node">
<title>[root] provider.aws (close)</title>
<ellipse fill="none" stroke="#000000" cx="598.5" cy="-306" rx="105.0817" ry="18"/>
<text text-anchor="middle" x="598.5" y="-302.3" font-family="Times,serif" font-size="14.00" fill="#000000">[root] provider.aws (close)</text>
</g>
<!-- [root] provider.aws (close)&#45;&gt;[root] aws_instance.ubuntu -->
<g id="edge13" class="edge">
<title>[root] provider.aws (close)&#45;&gt;[root] aws_instance.ubuntu</title>
<path fill="none" stroke="#000000" d="M598.5,-287.8314C598.5,-280.131 598.5,-270.9743 598.5,-262.4166"/>
<polygon fill="#000000" stroke="#000000" points="602.0001,-262.4132 598.5,-252.4133 595.0001,-262.4133 602.0001,-262.4132"/>
</g>
<!-- [root] provisioner.remote&#45;exec (close) -->
<g id="node15" class="node">
<title>[root] provisioner.remote&#45;exec (close)</title>
<ellipse fill="none" stroke="#000000" cx="761.5" cy="-378" rx="145.6742" ry="18"/>
<text text-anchor="middle" x="761.5" y="-374.3" font-family="Times,serif" font-size="14.00" fill="#000000">[root] provisioner.remote&#45;exec (close)</text>
</g>
<!-- [root] provisioner.remote&#45;exec (close)&#45;&gt;[root] aws_instance.ubuntu -->
<g id="edge16" class="edge">
<title>[root] provisioner.remote&#45;exec (close)&#45;&gt;[root] aws_instance.ubuntu</title>
<path fill="none" stroke="#000000" d="M755.5472,-359.9728C748.1929,-340.1072 733.9611,-308.2878 712.5,-288 698.6022,-274.8621 680.9205,-264.4037 663.6535,-256.3256"/>
<polygon fill="#000000" stroke="#000000" points="664.6888,-252.9551 654.1301,-252.0807 661.839,-259.3488 664.6888,-252.9551"/>
</g>
<!-- [root] root -->
<g id="node16" class="node">
<title>[root] root</title>
<ellipse fill="none" stroke="#000000" cx="587.5" cy="-450" rx="47.3916" ry="18"/>
<text text-anchor="middle" x="587.5" y="-446.3" font-family="Times,serif" font-size="14.00" fill="#000000">[root] root</text>
</g>
<!-- [root] root&#45;&gt;[root] meta.count&#45;boundary (EachMode fixup) -->
<g id="edge17" class="edge">
<title>[root] root&#45;&gt;[root] meta.count&#45;boundary (EachMode fixup)</title>
<path fill="none" stroke="#000000" d="M552.2592,-437.6228C521.9137,-426.9648 477.4867,-411.3612 441.693,-398.7897"/>
<polygon fill="#000000" stroke="#000000" points="442.44,-395.3425 431.8451,-395.331 440.1203,-401.947 442.44,-395.3425"/>
</g>
<!-- [root] root&#45;&gt;[root] provider.aws (close) -->
<g id="edge18" class="edge">
<title>[root] root&#45;&gt;[root] provider.aws (close)</title>
<path fill="none" stroke="#000000" d="M588.8932,-431.7623C590.7694,-407.201 594.1269,-363.2474 596.3341,-334.3541"/>
<polygon fill="#000000" stroke="#000000" points="599.8462,-334.3272 597.1182,-324.0896 592.8666,-333.794 599.8462,-334.3272"/>
</g>
<!-- [root] root&#45;&gt;[root] provisioner.remote&#45;exec (close) -->
<g id="edge19" class="edge">
<title>[root] root&#45;&gt;[root] provisioner.remote&#45;exec (close)</title>
<path fill="none" stroke="#000000" d="M619.8203,-436.6261C645.2722,-426.0943 681.2239,-411.2177 710.5421,-399.086"/>
<polygon fill="#000000" stroke="#000000" points="711.9043,-402.3102 719.8062,-395.2526 709.2278,-395.8421 711.9043,-402.3102"/>
</g>
</g>
</svg>
